<svg xmlns="http://www.w3.org/2000/svg" viewBox="0 0 101 127">
  <g fill="none" fill-rule="evenodd" transform="translate(-.565 -.297)">
    <path fill="#58595B" d="M55.4459647,95.2164356 C55.7838941,85.2639604 59.8154706,75.3926733 67.6291059,67.4223762 L60.0473059,64.0481188 C55.7838941,68.9411881 52.6089294,74.469901 50.5263412,80.3134653 C48.4398235,74.46 45.257,68.9213861 40.9798353,64.020396 L33.3960706,67.3926733 C41.2313176,75.3728713 45.2707529,85.2560396 45.6067176,95.2164356 L45.6165412,95.2164356 C45.3670235,105.283762 41.3158,115.285743 33.3980353,123.351089 L40.9818,126.725347 C45.2550353,121.822376 48.4398235,116.285743 50.5283059,110.436238 C52.6089294,116.273861 55.7838941,121.800594 60.0492706,126.695644 L67.6291059,123.323366 C59.7329529,115.26396 55.6895882,105.271881 55.4381059,95.2164356 L55.4459647,95.2164356 Z"/>
    <path fill="#78D64B" d="M83.9361647,36.8257426 C80.6040235,40.1841584 80.6040235,45.6356436 83.9361647,48.9980198 C87.2683059,52.3584158 100.708859,53.7326733 100.708859,53.7326733 C100.708859,53.7326733 99.3473176,40.1841584 96.0112471,36.8277228 C92.6791059,33.4673267 87.2683059,33.4673267 83.9361647,36.8257426"/>
    <path fill="#70D44B" d="M83.9361647 27.5956436C80.6040235 24.2352475 80.6040235 18.7837624 83.9361647 15.4253465 87.2683059 12.0629703 100.708859 10.6906931 100.708859 10.6906931 100.708859 10.6906931 99.3473176 24.2352475 96.0112471 27.5936634 92.6791059 30.9540594 87.2683059 30.9540594 83.9361647 27.5956436M65.1486647 46.9451485C68.4808059 43.5887129 73.8916059 43.5887129 77.2257118 46.9451485 80.5617824 50.3055446 81.9213588 63.850099 81.9213588 63.850099 81.9213588 63.850099 68.4827706 62.479802 65.1486647 59.1174257 61.8184882 55.7570297 61.8184882 50.3055446 65.1486647 46.9451485M56.3267424 32.6312871C56.3267424 27.8788119 60.1480953 24.0213861 64.8653541 24.0213861 69.5806482 24.0213861 80.0427071 32.6312871 80.0427071 32.6312871 80.0427071 32.6312871 69.5806482 41.2411881 64.8653541 41.2411881 60.1480953 41.2411881 56.3267424 37.3817822 56.3267424 32.6312871M65.1486647 18.1859406C61.8184882 14.8275248 61.8145588 9.37405941 65.1486647 6.01564356 68.4808059 2.65326733 81.9213588 1.2829703 81.9213588 1.2829703 81.9213588 1.2829703 80.5617824 14.8275248 77.2237471 18.1859406 73.8916059 21.5483168 68.4808059 21.5483168 65.1486647 18.1859406M50.7261518 40.0512871C55.4414459 40.0512871 59.2667282 43.9047525 59.2667282 48.6592079 59.2667282 53.409703 50.7261518 63.9582178 50.7261518 63.9582178 50.7261518 63.9582178 42.1836106 53.409703 42.1836106 48.6592079 42.1836106 43.9047525 46.0108576 40.0512871 50.7261518 40.0512871M50.7261518 24.7645545C55.4414459 24.7645545 59.2667282 20.9130693 59.2667282 16.1586139 59.2667282 11.4061386 50.7261518.861584158 50.7261518.861584158 50.7261518.861584158 42.1836106 11.4061386 42.1836106 16.1586139 42.1836106 20.9130693 46.0108576 24.7645545 50.7261518 24.7645545M36.2018671 46.9451485C32.8657965 43.5887129 27.4589259 43.5887129 24.1228553 46.9451485 20.7907141 50.3055446 19.4272082 63.850099 19.4272082 63.850099 19.4272082 63.850099 32.8657965 62.479802 36.1999024 59.1174257 39.5340082 55.7570297 39.5340082 50.3055446 36.2018671 46.9451485M45.1255612 32.6312871C45.1255612 27.8788119 41.3042082 24.0213861 36.58302 24.0213861 31.8716553 24.0213861 21.4056671 32.6312871 21.4056671 32.6312871 21.4056671 32.6312871 31.8716553 41.2411881 36.58302 41.2411881 41.3042082 41.2411881 45.1255612 37.3817822 45.1255612 32.6312871M36.2018671 18.1859406C39.5340082 14.8275248 39.5340082 9.37405941 36.2018671 6.01564356 32.8657965 2.65326733 19.4272082 1.2829703 19.4272082 1.2829703 19.4272082 1.2829703 20.7907141 14.8275248 24.1228553 18.1859406 27.4589259 21.5483168 32.8657965 21.5483168 36.2018671 18.1859406M17.4143671 36.8257426C20.7465082 40.1841584 20.7465082 45.6356436 17.4143671 48.9980198 14.0822259 52.3584158.643637647 53.7326733.643637647 53.7326733.643637647 53.7326733 2.00321412 40.1841584 5.33928471 36.8277228 8.67339059 33.4673267 14.0822259 33.4673267 17.4143671 36.8257426M17.4143671 27.5956436C20.7465082 24.2352475 20.7465082 18.7837624 17.4143671 15.4253465 14.0822259 12.0629703.643637647 10.6906931.643637647 10.6906931.643637647 10.6906931 2.00321412 24.2352475 5.33928471 27.5936634 8.67339059 30.9540594 14.0822259 30.9540594 17.4143671 27.5956436"/>
  </g>
</svg>
